<svg width="60912" height="34111" viewBox="0 0 60912 34111" fill="none" xmlns="http://www.w3.org/2000/svg">
<g clip-path="url(#clip0_82_96)">
<path d="M26713.6 -4252.88C27783.2 -4262.62 28851.6 -4265.06 29921.2 -4263.84C30456 -4263.84 30990.8 -4263.84 31526.8 -4263.84C52891.1 -4260.19 52891.1 -4260.19 60912 0.000306531C63158.4 1326.66 64827.4 3298.99 66105.4 5546.65C67988.8 9186.75 68538.2 13001.1 68526 17055.4C68527.2 17253.9 68527.2 17451.3 68528.4 17656C68515 21689.5 67820.6 25548.9 65806.9 29091.6C64548.4 31118.7 62983 32888.8 60912 34110.7C52278.3 38697.4 40478.5 38384.3 30990.8 38375.8C30456 38374.6 29921.2 38375.8 29385.2 38375.8C8020.89 38372.1 8020.89 38372.1 3.49786e-05 34110.7C-2246.43 32785.3 -3915.42 30812.9 -5193.36 28565.3C-7076.76 24925.2 -7626.18 21110.9 -7614 17055.4C-7614 16858 -7615.22 16660.7 -7615.22 16456C-7603.04 12422.4 -6908.64 8563.01 -4894.89 5020.37C1103.73 -4645.15 16715.5 -4134.71 26713.6 -4252.88Z" fill="#080D0E"/>
<path d="M32686.6 8695.8C33256.7 8945.54 33762.3 9207.46 34232.5 9625.31C34369 9944.49 34369 9944.49 34354.4 10234.4C34233.8 10355 34113.2 10475.6 33988.9 10599.9C33661.2 10599.9 33661.2 10599.9 33258 10478.1C33042.3 10338 33042.3 10338 32824.3 10195.5C31949.6 9633.84 31060.2 9391.41 30026 9329.28C28872.3 9289.08 27771 9263.5 26724.5 9811.71C26629.5 9870.18 26533.3 9929.87 26435.8 9990.79C26344.4 10040.7 26251.9 10090.7 26158 10141.8C25646.4 10462.2 25332.1 10864.3 25034.8 11375.9C24686.4 12139.8 24640.1 12831.7 24675.5 13665C24779 14555.5 25033.6 15207.3 25544.1 15943.1C25975.3 16486.4 26461.4 16967.6 26957.2 17450.1C27077.8 17567 27077.8 17567 27200.9 17687.6C27539.5 18015.3 27878.2 18343 28219.3 18667.1C28470.3 18905.9 28718.8 19148.3 28967.3 19390.7C29045.3 19463.8 29123.2 19536.9 29203.6 19611.2C29416.8 19822 29416.8 19822 29725.1 20224C29726.3 20630.9 29726.3 20630.9 29603.2 20954.9C29354.7 21124.3 29354.7 21124.3 29039.2 21229.1C28929.5 21266.8 28818.7 21304.6 28704.2 21343.6C28599.4 21375.2 28493.4 21408.1 28385 21442.2C28238.8 21489.8 28093.8 21537.3 27942.8 21586C26239.7 21996.5 24455 21927.1 22781.1 21442.2C22620.3 21402 22459.5 21361.8 22293.8 21320.4C22939.5 22028.2 23649.7 22521.6 24539 22873.7C26227.5 23335.4 27905 23492.5 29625.2 23056.4C30769.1 22705.6 30769.1 22705.6 31719.3 22005.1C32019 21521.4 32144.5 21107.2 32206.6 20543.2C32146.9 19962.1 31983.7 19624.6 31674.2 19127.6C31327 18740.2 30955.5 18385.7 30577.8 18031.2C30374.4 17827.7 30170.9 17624.3 29968.7 17422.1C29723.8 17180.8 29477.8 16939.6 29232.9 16699.6C29020.9 16488.9 28807.7 16279.3 28595.7 16068.6C28449.6 15924.8 28304.6 15781.1 28157.2 15638.5C27944 15429 27732 15219.5 27520 15008.7C27393.3 14884.5 27267.9 14760.2 27137.5 14632.3C26705 14146.2 26398 13654 26192.2 13036.4C26144.6 12476 26181.2 12091 26366.4 11558.7C26691.6 11067.7 26956 10786.3 27455.5 10486.6C27937.9 10289.3 28360.6 10257.6 28878.4 10283.2C29493.6 10407.4 29854.2 10685.2 30334.2 11087.2C30393.9 11267.5 30393.9 11267.5 30456 11452.7C30616.8 11533.1 30777.6 11613.5 30943.3 11696.3C31525.6 12223.8 31525.6 12223.8 31674.2 12670.9C31854.5 12730.6 31854.5 12730.6 32039.7 12792.7C32137.2 12920.7 32235.8 13048.6 32335.7 13180.1C32490.5 13349.5 32490.5 13349.5 32648.8 13523.7C33141 13276.4 33426.1 13025.4 33820.8 12647.8C35114.6 11449 36561.8 10469.6 38283.2 9998.1C39338.2 9771.5 40381 9792.21 41420.2 10112.6C42404.5 10504.9 43276.8 11011.7 43978.5 11818.1C44640 12785.4 45031 13802.7 45120 14969.7C45082.2 16008.9 44816.6 17009.1 44274.5 17898.4C43662.9 18790.1 43007.5 19384.6 42029.3 19858.5C41224 20204.5 40455.3 20431.1 39574.5 20390.9C38508.6 20249.6 37658.2 19910.9 36787.2 19292C36039.2 18700 35383.8 18005.6 34716.2 17327C34554.2 17165 34392.1 17003 34231.3 16839.7C33808.6 16415.8 33388.3 15990.6 32966.8 15565.5C32290.7 14882 31613.3 14199.8 30934.8 13517.6C30698.4 13278.8 30462.1 13041.3 30227 12802.5C30082 12657.5 29938.2 12512.5 29794.5 12367.6C29669 12239.7 29543.5 12113 29414.4 11982.6C29144 11695.1 29144 11695.1 28872.3 11574.5C28521.4 11512.4 28521.4 11512.4 28141.3 11574.5C27771 11802.3 27771 11802.3 27532.2 12183.6C27420.1 12636.8 27420.1 12636.8 27532.2 13158.2C27838 13594.3 28215.7 13946.4 28603.1 14310.7C28767.5 14471.5 28767.5 14471.5 28934.4 14635.9C29284.1 14978.3 29637.3 15316.9 29990.6 15655.6C30341.5 15994.3 30692.3 16332.9 31040.8 16674.1C31258.8 16886 31476.9 17096.8 31696.2 17305.1C32393 17980 32929 18613.5 33295.7 19523.5C33435.8 20284.9 33504 21020.7 33281.1 21772.4C32979 22449.7 32559.9 22951.6 31988.5 23420.7C30948.2 24127.2 29762.8 24418.4 28521.4 24514.6C26650.2 24589 24949.6 24457.4 23222.1 23672.8C22302.3 23175.8 21584.8 22528.9 20961 21693.2C20426.2 20640.6 20282.5 19764.7 20309.3 18594C20373.8 17777.8 20605.3 17085.8 20991.5 16363.4C21099.9 16229.4 21207.1 16096.6 21319.2 15960.2C21715.1 15951.6 21715.1 15951.6 22050.1 16082C22090.3 16121 22130.5 16161.2 22172 16203.8C22135.4 16659.4 22083 16995.7 21858.9 17398.9C21604.3 17964.2 21645.7 18384.5 21684.7 19005.8C21754.1 19363.9 21754.1 19363.9 21928.3 19614.9C23285.4 20293.4 24497.6 20612.6 26022.8 20633.3C26712.3 20576.1 27353.1 20406.7 28019.5 20224C27920.8 20127.8 27820.9 20031.5 27719.8 19934.1C27348.3 19572.2 26977.9 19210.4 26608.8 18846.2C26449.2 18690.2 26289.6 18534.3 26130 18379.6C25006.8 17294.1 24062.7 16229.4 23512 14741.9C23320.8 13827 23267.2 12850 23473 11935.1C23804.4 10958.1 24310 10117.5 25065.3 9412.12C25883.9 8742.09 26812.2 8333.98 27840.4 8102.51C29561.8 7852.78 31085.8 8068.4 32686.6 8695.8Z" fill="#AFB3B4"/>
<path d="M41260.6 11261.4C42019.5 11579.4 42590.9 12048.4 43125.7 12669.7C43560.6 13275.2 43814 13840.4 43922.4 14579.9C43959 15505.8 43831.1 16272 43425.4 17106.5C43078.2 17720.5 42744.4 18123.8 42151.1 18514.8C41409.2 18930.2 40775.7 19183.6 39920.5 19203.1C39228.5 19161.7 38643.8 19054.5 38009.1 18760.9C37278.1 18273.6 36613 17701 36075.7 17003C35744.4 16603.4 35360.6 16292.7 34963.5 15958.9C34758.8 15759.2 34555.4 15555.7 34354.4 15349.8C34238.6 15247.5 34122.9 15143.9 34004.7 15038C33919.5 14940.5 33833 14841.8 33745.2 14740.7C33874.4 14224.2 34005.9 14035.3 34354.4 13644.3C35463 12613.7 36789.6 11643.9 38252.7 11207.8C39254.1 11015.3 40276.2 10954.4 41260.6 11261.4Z" fill="#080E0F"/>
<path d="M41420.2 10111.4C42405.7 10503.7 43278 11011.7 43978.5 11816.9C44640 12784.2 45031 13802.7 45121.2 14969.7C45083.4 16007.7 44816.6 17007.8 44274.5 17897.2C43662.9 18788.9 43008.7 19384.6 42029.3 19857.3C41224 20203.3 40456.5 20429.9 39574.5 20390.9C38322.2 20224 37419.5 19758.6 36425.4 19004.5C36055 18685.4 35704.2 18349.1 35357 18005.6C35262 17913 35168.2 17821.6 35071.9 17726.6C34875.8 17532.9 34679.6 17339.2 34484.7 17145.5C34183.8 16847 33879.3 16552.2 33574.7 16257.4C33384.6 16068.6 33193.4 15879.8 33003.3 15690.9C32912 15603.2 32819.4 15514.3 32725.6 15424.1C32478.3 15174.4 32478.3 15174.4 32161.5 14740.7C32337 14437.4 32337 14437.4 32648.8 14253.4C32729.2 14253.4 32809.6 14253.4 32892.5 14253.4C32932.7 14132.8 32972.9 14012.2 33014.3 13887.9C32933.9 13887.9 32853.5 13887.9 32770.7 13887.9C33312.8 12803.7 34490.8 11944.8 35493.4 11279.7C37359.8 10161.3 39249.3 9442.58 41420.2 10111.4ZM36394.9 12063C34918.4 13055.9 34918.4 13055.9 33745.2 14375.2C33745.2 14495.8 33745.2 14616.4 33745.2 14740.7C34016.9 15042.8 34016.9 15042.8 34354.4 15349.8C34449.4 15447.3 34545.6 15546 34643.1 15647.1C34885.5 15882.2 35138.9 16106.4 35397.2 16324.4C35816.3 16689.9 35816.3 16689.9 36052.6 16987.1C36412 17434.2 36837.1 17786.3 37278.1 18151.8C37361 18220 37442.6 18289.4 37527.9 18360.1C38043.2 18770.6 38455 19021.6 39105.5 19126.4C39868.1 19215.3 40536.9 19217.7 41270.3 18974.1C41953.7 18659.8 42533.6 18330.9 43019.7 17748.5C43209.8 17468.3 43209.8 17468.3 43369.3 17177.2C43421.7 17085.8 43474.1 16994.4 43527.7 16900.6C43888.3 16152.6 43943.1 15412 43918.8 14589.6C43803 13741.7 43441.2 13086.3 42929.6 12411.4C42408.2 11835.2 41764.9 11495.3 41054.7 11207.8C39451.5 10807 37782.5 11201.7 36394.9 12063Z" fill="#A9ADAE"/>
<path d="M28878.4 10281.9C29493.6 10406.2 29854.2 10685.2 30334.2 11086C30393.9 11266.3 30393.9 11266.3 30456 11451.5C30616.8 11531.9 30777.6 11612.3 30943.3 11695.1C31525.6 12222.6 31525.6 12222.6 31674.2 12669.7C31794.8 12709.9 31915.5 12750.1 32039.7 12791.5C32428.3 13210.6 32428.3 13210.6 32770.7 13644.3C32770.7 13724.7 32770.7 13805.1 32770.7 13887.9C32851.1 13887.9 32931.5 13887.9 33014.3 13887.9C33054.5 13807.5 33094.7 13727.1 33136.1 13644.3C33136.1 14035.3 33070.3 14272.9 32892.5 14618.9C32812.1 14538.5 32731.7 14458.1 32648.8 14375.2C32568.4 14455.6 32488 14536 32405.2 14618.9C31917.9 14497.1 31917.9 14497.1 31609.7 14227.8C31496.4 14112.1 31383.1 13995.1 31266.1 13875.8C31141.9 13750.3 31018.8 13624.8 30890.9 13495.7C30763 13364.1 30633.9 13231.3 30501.1 13096.1C30246.5 12835.4 29990.6 12574.7 29736 12315.2C29565.5 12141 29565.5 12141 29392.5 11964.3C29140.3 11691.4 29140.3 11691.4 28872.3 11573.3C28522.7 11512.4 28522.7 11512.4 28141.3 11573.3C27710.1 11901 27504.2 12229.9 27227.7 12700.2C27166.8 12851.2 27107.1 13001.1 27044.9 13157C27165.5 13197.2 27286.1 13237.4 27410.4 13278.8C27410.4 13439.6 27410.4 13600.4 27410.4 13766.1C27531 13766.1 27651.6 13766.1 27775.9 13766.1C27775.9 13886.7 27775.9 14007.3 27775.9 14131.6C27856.3 14131.6 27936.7 14131.6 28019.5 14131.6C28099.9 14212 28180.3 14292.4 28263.2 14375.2C28343.6 14375.2 28424 14375.2 28506.8 14375.2C28587.2 14495.8 28667.6 14616.4 28750.5 14740.7C28750.5 14861.3 28750.5 14981.9 28750.5 15106.2C28830.9 15106.2 28911.3 15106.2 28994.1 15106.2C29114.7 15226.8 29235.3 15347.4 29359.6 15471.6C29440 15471.6 29520.4 15471.6 29603.2 15471.6C29603.2 15552.1 29603.2 15632.5 29603.2 15715.3C29362 15775 29362 15775 29115.9 15837.1C29035.5 15796.9 28955.1 15756.7 28872.3 15715.3C28671.3 15715.3 28470.3 15715.3 28263.2 15715.3C27901.4 15425.4 27901.4 15425.4 27524.9 15038C27399.4 14911.3 27275.2 14785.8 27147.3 14656.6C26718.4 14157.2 26400.5 13660.1 26192.2 13035.2C26144.6 12474.8 26181.2 12091 26367.6 11557.4C26691.6 11066.5 26956 10785.1 27455.5 10486.6C27937.9 10288 28360.6 10256.4 28878.4 10281.9Z" fill="#B0B4B5"/>
<path d="M38496.4 10233.2C38536.6 10233.2 38576.8 10233.2 38618.2 10233.2C38658.4 10193 38698.6 10152.8 38740 10111.4C39302.9 10079.7 39564.8 10098 40080.1 10355C40039.9 10475.6 39999.7 10596.3 39958.3 10720.5C39837.7 10800.9 39717.1 10881.3 39592.8 10964.2C39155.5 10919.1 38899.6 10799.7 38496.4 10598.7C38496.4 10679.1 38496.4 10759.5 38496.4 10842.3C38617 10882.5 38737.6 10922.7 38861.9 10964.2C38685.2 10982.4 38685.2 10982.4 38503.7 11001.9C38380.7 11029.9 38257.6 11058 38130.9 11086C38090.7 11206.6 38050.5 11327.2 38009.1 11451.5C37726.5 11559.9 37443.8 11667.1 37160 11773.1C36017.3 12286 34894 13154.6 34064.4 14093.8C33848.8 14372.8 33848.8 14372.8 33745.2 14740.7C33906.1 14821.1 34066.9 14901.5 34232.5 14984.4C34637 15359.6 35014.7 15748.2 35329 16202.6C35329 16363.4 35329 16524.2 35329 16689.9C35489.8 16730.1 35650.6 16770.3 35816.3 16811.7C35945.4 17383.1 35945.4 17383.1 35938.1 17908.1C35671.3 17870.4 35671.3 17870.4 35329 17664.5C35168.2 17584.1 35007.3 17503.7 34841.7 17420.8C34354.4 17000.5 33900 16546.1 33440.7 16096.6C33311.6 15973.6 33181.2 15850.5 33047.2 15723.8C32927.8 15605.7 32807.2 15487.5 32682.9 15365.7C32570.9 15257.2 32460 15150 32344.3 15038C32284.6 14940.5 32223.7 14841.8 32161.5 14740.7C32357.7 14458.1 32357.7 14458.1 32648.8 14253.4C32729.2 14253.4 32809.6 14253.4 32892.5 14253.4C32932.7 14132.8 32972.9 14012.2 33014.3 13887.9C32933.9 13887.9 32853.5 13887.9 32770.7 13887.9C33312.8 12803.7 34488.4 11949.7 35489.8 11280.9C37618 10013.9 37618 10013.9 38496.4 10233.2Z" fill="#ADB1B2"/>
<path d="M27288.6 12304.2C27328.8 12304.2 27369 12304.2 27410.4 12304.2C27410.4 12421.2 27410.4 12538.1 27411.6 12658.7C27538.3 13181.4 27637 13319 27995.2 13696.7C28199.8 13898.9 28406.9 14099.9 28615.2 14298.5C28724.9 14405.7 28833.3 14512.9 28946.6 14623.8C29295 14966.1 29647.1 15307.2 29999.2 15647.1C30348.8 15987 30698.4 16326.9 31046.8 16668C31263.7 16879.9 31480.5 17091.9 31699.8 17301.4C32280.9 17869.1 32763.3 18400.3 33136.1 19126.4C33095.9 19247 33055.7 19367.6 33014.3 19491.8C32893.7 19491.8 32773.1 19491.8 32648.8 19491.8C32684.2 19247 32725.6 19003.3 32770.7 18760.9C32690.3 18760.9 32609.8 18760.9 32527 18760.9C32527 18680.5 32527 18600.1 32527 18517.2C32446.6 18517.2 32366.2 18517.2 32283.4 18517.2C32223.7 18637.9 32223.7 18637.9 32161.5 18760.9C32040.9 18921.7 31920.3 19082.5 31796.1 19248.2C31515.9 19050.8 31515.9 19050.8 31202.8 18707.3C31099.2 18597.7 30996.9 18486.8 30890.9 18373.5C30787.4 18260.2 30683.8 18146.9 30577.8 18030C30375.6 17825.3 30173.4 17623.1 29968.7 17420.8C29441.2 16893.3 28912.5 16364.6 28385 15837.1C28545.8 15796.9 28706.6 15756.7 28872.3 15715.3C28912.5 15634.9 28952.7 15554.5 28994.1 15471.6C29034.3 15552.1 29074.5 15632.5 29115.9 15715.3C29276.7 15715.3 29437.6 15715.3 29603.2 15715.3C29503.3 15660.5 29402.2 15604.4 29298.7 15548.4C29198.8 15482.6 29097.7 15416.8 28994.1 15349.8C28994.1 15269.4 28994.1 15189 28994.1 15106.2C28913.7 15106.2 28833.3 15106.2 28750.5 15106.2C28712.7 14983.1 28674.9 14860.1 28635.9 14733.4C28593.3 14615.2 28550.7 14497.1 28506.8 14375.2C28386.2 14415.4 28265.6 14455.6 28141.3 14497.1C28101.1 14376.4 28060.9 14255.8 28019.5 14131.6C27939.1 14131.6 27858.7 14131.6 27775.9 14131.6C27775.9 14011 27775.9 13890.4 27775.9 13766.1C27655.3 13766.1 27534.7 13766.1 27410.4 13766.1C27370.2 13605.3 27330 13444.5 27288.6 13278.8C27208.2 13238.6 27127.8 13198.4 27044.9 13157C27143.6 12723.3 27143.6 12723.3 27288.6 12304.2Z" fill="#ACB0B1"/>
<path d="M25704.9 17908.1C26011.9 18138.4 26278.7 18375.9 26557.6 18639.1C26696.5 18769.4 26835.4 18898.6 26979.1 19032.6C27127.8 19175.1 27277.6 19317.6 27426.2 19461.4C27640.6 19667.3 27640.6 19667.3 27861.1 19878C27953.7 19992.5 28046.3 20105.8 28141.3 20222.8C27640.6 20556.6 27144.8 20639.4 26557.6 20710.1C24579.2 20788 24579.2 20788 23999.3 20588.3C24039.5 20467.7 24079.7 20347 24121.2 20222.8C24040.7 20142.4 23960.3 20062 23877.5 19979.1C24038.3 19938.9 24199.1 19898.7 24364.8 19857.3C24204 19776.9 24043.2 19696.5 23877.5 19613.7C23983.5 19606.4 24088.3 19597.8 24196.7 19590.5C24597.5 19546.7 24958.1 19500.4 25339.4 19370C25430.8 18938.8 25430.8 18938.8 25339.4 18517.2C25460 18477 25580.6 18436.8 25704.9 18395.4C25664.7 18315 25624.5 18234.6 25583 18151.8C25623.2 18071.4 25663.4 17991 25704.9 17908.1Z" fill="#0D1112"/>
<path d="M21684.7 19613.7C22095.2 19627.1 22348.6 19767.2 22705.6 19971.8C23135.6 20216.7 23520.6 20349.5 23999.3 20466.4C23755.7 20628.5 23512 20791.7 23268.4 20953.7C23389 21034.1 23509.6 21114.5 23633.9 21197.4C23633.9 21117 23633.9 21036.6 23633.9 20953.7C24091.9 20974.4 24532.9 21073.1 24973.9 21197.4C25362.5 21456.9 25362.5 21456.9 25583 21684.7C24379.4 21882 23412.1 21645.7 22263.3 21274.1C22152.5 21208.3 22042.8 21142.6 21928.3 21075.6C21799.2 20747.8 21799.2 20747.8 21806.5 20466.4C21886.9 20466.4 21967.3 20466.4 22050.1 20466.4C21969.7 20305.6 21889.3 20144.8 21806.5 19979.1C21766.3 19858.5 21726.1 19737.9 21684.7 19613.7Z" fill="#ABAFB0"/>
<path d="M25324.8 20626C25481.9 20630.9 25640.3 20634.5 25802.3 20639.4C26028.9 20646.7 26028.9 20646.7 26260.4 20655.3C26399.3 20660.1 26538.1 20663.8 26680.7 20668.7C27046.1 20710.1 27046.1 20710.1 27533.4 20953.7C27451.8 21074.3 27371.4 21194.9 27289.8 21319.2C27208.2 21319.2 27127.8 21319.2 27046.1 21319.2C27046.1 21238.8 27046.1 21158.4 27046.1 21075.6C26736.7 21141.3 26736.7 21141.3 26437 21319.2C26395.6 21480 26355.4 21640.8 26315.2 21806.5C25903.4 21875.9 25514.8 21827.2 25095.7 21806.5C25176.1 21726.1 25256.6 21645.7 25340.6 21562.8C24872.8 21251 24424.5 21191.3 23877.5 21075.6C23797.1 21035.4 23716.7 20995.1 23633.9 20953.7C23633.9 21034.1 23633.9 21114.5 23633.9 21197.4C23329.3 21090.2 23329.3 21090.2 23024.7 20953.7C23772.7 20455.5 24445.2 20594.3 25324.8 20626Z" fill="#B2B6B7"/>
<path d="M42151.1 11086C42502 11116.4 42502 11116.4 42882 11207.8C43042.9 11328.4 43203.7 11449 43369.3 11573.3C43329.1 11734.1 43288.9 11894.9 43247.5 12060.6C43368.1 12060.6 43488.7 12060.6 43613 12060.6C43773.8 12141 43934.6 12221.4 44100.3 12304.2C44100.3 12505.2 44100.3 12706.2 44100.3 12913.3C44220.9 12913.3 44341.5 12913.3 44465.8 12913.3C44465.8 12993.7 44465.8 13074.2 44465.8 13157C44546.2 13197.2 44626.6 13237.4 44709.4 13278.8C44709.4 13399.4 44709.4 13520 44709.4 13644.3C43795.7 13644.3 43795.7 13644.3 43491.2 13522.5C43342.5 13289.8 43195.1 13055.9 43059.9 12815.9C42752.9 12353 42335.1 12046 41907.5 11695.1C41827.1 11614.7 41746.6 11534.3 41663.8 11451.5C41744.2 11451.5 41824.6 11451.5 41907.5 11451.5C41907.5 11371.1 41907.5 11290.6 41907.5 11207.8C41987.9 11167.6 42068.3 11127.4 42151.1 11086Z" fill="#A7ACAD"/>
<path d="M35329 16202.6C35409.4 16242.8 35489.8 16283 35572.6 16324.4C35572.6 16404.8 35572.6 16485.2 35572.6 16568.1C35693.2 16608.3 35813.8 16648.5 35938.1 16689.9C36146.4 16887.2 36348.6 17090.7 36547.2 17299C36667.8 17419.6 36788.4 17540.2 36912.7 17664.5C36912.7 17744.9 36912.7 17825.3 36912.7 17908.1C37073.5 17988.5 37234.3 18068.9 37400 18151.8C37681.4 18395.4 37681.4 18395.4 37887.3 18639.1C37847.1 18719.5 37806.9 18799.9 37765.4 18882.7C37564.4 18882.7 37363.4 18882.7 37156.3 18882.7C37156.3 18721.9 37156.3 18561.1 37156.3 18395.4C37035.7 18395.4 36915.1 18395.4 36790.8 18395.4C36750.6 18435.6 36710.4 18475.8 36669 18517.2C36749.4 18678.1 36829.8 18838.9 36912.7 19004.5C36832.3 19084.9 36751.9 19165.4 36669 19248.2C36320.6 18960.7 36320.6 18960.7 35914.9 18547.7C35780.9 18412.5 35645.7 18277.3 35506.8 18138.4C35408.1 18022.6 35309.5 17905.7 35207.1 17786.3C35247.3 17705.9 35287.5 17625.5 35329 17542.7C35570.2 17602.3 35570.2 17602.3 35816.3 17664.5C35824.8 17244.2 35824.8 17244.2 35694.4 16811.7C35573.8 16771.5 35453.2 16731.3 35329 16689.9C35329 16529.1 35329 16368.3 35329 16202.6Z" fill="#A7ABAC"/>
<path d="M41420.2 10111.4C41500.6 10191.8 41581 10272.2 41663.8 10355C41298.3 10476.9 41298.3 10476.9 40689.2 10476.9C40689.2 10637.7 40689.2 10798.5 40689.2 10964.2C40201.9 11126.2 39721.9 11174.9 39211.5 11238.3C38914.2 11277.2 38914.2 11277.2 38609.7 11316.2C38372.1 11322.3 38372.1 11322.3 38130.9 11329.6C38090.7 11209 38050.5 11088.4 38009.1 10964.2C38210.1 10964.2 38411.1 10964.2 38618.2 10964.2C38578 10843.6 38537.8 10722.9 38496.4 10598.7C38657.2 10638.9 38818 10679.1 38983.7 10720.5C39291.9 10800.9 39291.9 10800.9 39592.8 10842.3C39713.4 10802.1 39834 10761.9 39958.3 10720.5C39958.3 10599.9 39958.3 10479.3 39958.3 10355C39613.5 10334.3 39613.5 10334.3 39227.3 10355C39066.5 10314.8 38905.7 10274.6 38740 10233.2C38740 10313.6 38740 10394 38740 10476.9C38619.4 10436.7 38498.8 10396.5 38374.6 10355C38374.6 10234.4 38374.6 10113.8 38374.6 9989.57C39317.5 9643.59 40477.2 9875.05 41420.2 10111.4Z" fill="#ACB0B1"/>
<path d="M29603.2 8162.21C30434.1 8107.39 30434.1 8107.39 30821.5 8162.21C30982.3 8282.81 31143.1 8403.42 31308.8 8527.68C31509.8 8614.17 31712 8697.02 31917.9 8771.33C31797.3 8811.53 31676.7 8851.73 31552.4 8893.15C31552.4 8973.56 31552.4 9053.96 31552.4 9136.8C31472 9136.8 31391.6 9136.8 31308.8 9136.8C31308.8 9217.2 31308.8 9297.61 31308.8 9380.45C31065.1 9258.62 31065.1 9258.62 30821.5 9014.98C30700.9 9055.18 30580.3 9095.38 30456 9136.8C30160 9157.51 29862.7 9169.69 29565.5 9174.57C29407.1 9179.44 29249.9 9184.31 29086.7 9189.18C28975.8 9172.13 28865 9153.86 28750.5 9136.8C28830.9 8975.99 28911.3 8815.18 28994.1 8649.5C29195.1 8563.01 29398.6 8481.39 29603.2 8405.86C29603.2 8325.45 29603.2 8245.05 29603.2 8162.21Z" fill="#B5B9BC"/>
<path d="M36181.7 10842.3C36262.1 10882.5 36342.5 10922.7 36425.4 10964.2C36385.2 11044.6 36345 11125 36303.6 11207.8C36424.2 11248 36544.8 11288.2 36669 11329.6C35694.4 11816.9 35694.4 11816.9 35305.8 11863.2C35192.5 11887.6 35080.4 11913.2 34963.5 11938.8C34923.3 12099.6 34883.1 12260.4 34841.7 12426C34922.1 12466.2 35002.5 12506.5 35085.3 12547.9C35205.9 12507.7 35326.5 12467.5 35450.8 12426C35450.8 12305.4 35450.8 12184.8 35450.8 12060.6C35785.8 12128.8 35785.8 12128.8 36059.9 12304.2C35914.9 12510.1 35914.9 12510.1 35572.6 12791.5C35492.2 12865.8 35411.8 12940.1 35329 13016.9C34825.8 13481 34825.8 13481 34598 13644.3C34517.6 13604.1 34437.2 13563.9 34354.4 13522.5C34354.4 13442.1 34354.4 13361.7 34354.4 13278.8C34434.8 13278.8 34515.2 13278.8 34598 13278.8C34678.4 12914.6 34678.4 12914.6 34719.8 12547.9C34599.2 12628.3 34478.6 12708.7 34354.4 12791.5C34354.4 12831.7 34354.4 12871.9 34354.4 12913.3C34070.5 12958.4 33786.7 12999.8 33501.6 13035.2C34315.4 12195.8 35149.9 11403.9 36181.7 10842.3Z" fill="#A8ACAD"/>
<path d="M32283.4 18517.2C32363.8 18517.2 32444.2 18517.2 32527 18517.2C32527 18597.7 32527 18678.1 32527 18760.9C32607.4 18760.9 32687.8 18760.9 32770.7 18760.9C32810.9 18921.7 32851.1 19082.5 32892.5 19248.2C33013.1 19328.6 33133.7 19409 33258 19491.8C33376.1 19967 33417.5 20345.8 33379.8 20831.9C33259.2 20791.7 33138.6 20751.5 33014.3 20710.1C32974.1 20549.3 32933.9 20388.5 32892.5 20222.8C32812.1 20303.2 32731.7 20383.6 32648.8 20466.4C32608.6 20627.2 32568.4 20788 32527 20953.7C32446.6 20913.5 32366.2 20873.3 32283.4 20831.9C32189.6 20468.9 32110.4 20103.4 32039.7 19735.5C32006.8 19579.6 31973.9 19423.6 31941 19264C31933.7 19137.3 31925.2 19011.9 31917.9 18882.7C32038.5 18762.1 32159.1 18641.5 32283.4 18517.2Z" fill="#B1B5B6"/>
<path d="M20466.4 19491.8C20554.1 19534.5 20641.9 19577.1 20733.2 19621C20902.6 19678.2 20902.6 19678.2 21075.6 19735.5C21230.3 19694.1 21230.3 19694.1 21387.4 19651.4C21486.1 19639.2 21583.6 19627.1 21684.7 19613.7C21981.9 19873.1 21981.9 19873.1 22172 20222.8C22066 20557.8 22066 20557.8 21928.3 20831.9C22008.7 20872.1 22089.1 20912.3 22172 20953.7C21806.5 21441 21806.5 21441 21319.2 21684.7C21238.8 21564.1 21158.4 21443.5 21075.6 21319.2C21101.1 21193.7 21125.5 21068.2 21152.3 20939.1C21166.9 20823.4 21181.5 20707.6 21197.4 20588.3C21036.6 20548.1 20875.8 20507.9 20710.1 20466.4C20557.8 19971.8 20557.8 19971.8 20466.4 19491.8Z" fill="#B4B8B9"/>
<path d="M43978.5 13278.8C44222.1 13400.6 44465.8 13522.5 44709.4 13644.3C44749.6 13563.9 44789.8 13483.5 44831.2 13400.6C45056.6 14163.3 45096.8 14807.7 45074.9 15593.5C44954.3 15432.7 44833.7 15271.9 44709.4 15106.2C44709.4 15025.8 44709.4 14945.4 44709.4 14862.5C44588.8 14902.7 44468.2 14942.9 44343.9 14984.4C44263.5 14944.2 44183.1 14903.9 44100.3 14862.5C44054 15105 44013.8 15348.6 43978.5 15593.5C43938.3 15593.5 43898.1 15593.5 43856.6 15593.5C43829.8 15363.2 43811.6 15131.8 43795.7 14900.3C43768.9 14515.3 43739.7 14155.9 43654.4 13779.5C43641 13694.2 43627.6 13610.2 43613 13522.5C43693.4 13522.5 43773.8 13522.5 43856.6 13522.5C43896.8 13442.1 43937 13361.7 43978.5 13278.8Z" fill="#A4A8A9"/>
<path d="M41420.2 18882.7C41540.8 18922.9 41661.4 18963.1 41785.6 19004.5C41785.6 19084.9 41785.6 19165.4 41785.6 19248.2C41866 19248.2 41946.4 19248.2 42029.3 19248.2C42029.3 19167.8 42029.3 19087.4 42029.3 19004.5C42441 18913.2 42441 18913.2 42882 18882.7C42962.5 18963.1 43042.9 19043.5 43125.7 19126.4C42722.5 19519.9 42286.3 19741.6 41771 19956C41644.3 20009.6 41518.8 20063.2 41388.5 20118C41278.8 20153.3 41168 20187.5 41054.7 20222.8C40934.1 20182.6 40813.5 20142.4 40689.2 20101C40769.6 20101 40850 20101 40932.9 20101C40932.9 20020.6 40932.9 19940.2 40932.9 19857.3C40791.5 19817.1 40651.5 19776.9 40506.5 19735.5C40366.4 19695.3 40225.1 19655.1 40080.1 19613.7C40080.1 19533.3 40080.1 19452.9 40080.1 19370C40240.9 19329.8 40401.7 19289.6 40567.4 19248.2C40688 19328.6 40808.6 19409 40932.9 19491.8C41053.5 19451.6 41174.1 19411.4 41298.3 19370C41338.5 19209.2 41378.7 19048.4 41420.2 18882.7Z" fill="#AAADAF"/>
<path d="M21319.2 15958.9C21684.7 16005.2 21684.7 16005.2 22050.1 16080.8C22090.3 16121 22130.5 16161.2 22172 16202.6C22134.2 16621.7 22134.2 16621.7 22050.1 17055.4C21969.7 17135.8 21889.3 17216.2 21806.5 17299C21806.5 17218.6 21806.5 17138.2 21806.5 17055.4C21438.6 17178.4 21438.6 17178.4 21075.6 17420.8C20929.4 17731.5 20929.4 17731.5 20831.9 18030C20711.3 18070.2 20590.7 18110.4 20466.4 18151.8C20466.4 17546.3 20605.3 17096.8 20892.8 16575.4C21197.4 16080.8 21197.4 16080.8 21319.2 15958.9Z" fill="#B0B4B5"/>
<path d="M28263.2 8040.38C28778.5 8000.18 28778.5 8000.18 29382.7 8009.93C29682.4 8012.36 29682.4 8012.36 29989.4 8016.02C30142.9 8023.33 30297.6 8031.86 30456 8040.38C30456 8080.59 30456 8120.79 30456 8162.21C30312.2 8157.33 30169.7 8152.46 30022.3 8147.59C29883.4 8152.46 29745.8 8157.33 29603.2 8162.21C29643.4 8282.81 29683.6 8403.42 29725.1 8527.68C29444.9 8658.03 29159.8 8778.64 28872.3 8893.15C28832.1 8973.56 28791.9 9053.96 28750.5 9136.8C30034.5 9057.61 30034.5 9057.61 31308.8 8893.15C31228.4 9053.96 31148 9214.77 31065.1 9380.45C30602.2 9409.69 30185.5 9408.47 29725.1 9380.45C29537.4 9374.36 29537.4 9374.36 29347.4 9368.27C28986.8 9349.99 28986.8 9349.99 28385 9258.62C28304.6 9097.82 28224.2 8937.01 28141.3 8771.33C28181.5 8731.13 28221.7 8690.92 28263.2 8649.5C28142.6 8569.1 28022 8488.7 27897.7 8405.86C28018.3 8285.25 28138.9 8164.64 28263.2 8040.38Z" fill="#B4B8B9"/>
<path d="M32770.7 20101C32851.1 20141.2 32931.5 20181.4 33014.3 20222.8C33014.3 20383.6 33014.3 20544.4 33014.3 20710.1C33134.9 20750.3 33255.5 20790.5 33379.8 20831.9C33365.2 21531.2 33119.1 22061.1 32770.7 22659.3C32609.8 22779.9 32449 22900.5 32283.4 23024.7C32344.3 22765.3 32344.3 22765.3 32405.2 22499.7C32539.2 21966.1 32539.2 21966.1 32527 21562.8C32486.8 21522.6 32446.6 21482.4 32405.2 21441C32284.6 21621.3 32284.6 21621.3 32161.5 21806.5C32081.1 21766.3 32000.7 21726.1 31917.9 21684.7C32070.2 21251 32070.2 21251 32283.4 20831.9C32363.8 20831.9 32444.2 20831.9 32527 20831.9C32567.2 20751.5 32607.4 20671.1 32648.8 20588.3C32568.4 20548.1 32488 20507.9 32405.2 20466.4C32525.8 20345.8 32646.4 20225.2 32770.7 20101Z" fill="#AAAEAF"/>
<path d="M32283.4 21075.6C32527 21342.3 32527 21342.3 32770.7 21684.7C32770.7 21885.7 32770.7 22086.7 32770.7 22293.8C32690.3 22293.8 32609.8 22293.8 32527 22293.8C32486.8 22454.6 32446.6 22615.4 32405.2 22781.1C32324.8 22861.5 32244.4 22941.9 32161.5 23024.7C32040.9 23024.7 31920.3 23024.7 31796.1 23024.7C31755.9 23105.1 31715.7 23185.5 31674.2 23268.4C31593.8 23268.4 31513.4 23268.4 31430.6 23268.4C31430.6 23188 31430.6 23107.6 31430.6 23024.7C31229.6 23024.7 31028.6 23024.7 30821.5 23024.7C31484.2 22224.4 31484.2 22224.4 31894.7 21913.7C31982.5 21838.2 32071.4 21762.6 32161.5 21684.7C32268.7 21364.3 32268.7 21364.3 32283.4 21075.6ZM31065.1 23146.6C31185.7 23186.8 31306.3 23227 31430.6 23268.4C31350.2 23348.8 31269.8 23429.2 31186.9 23512C31146.7 23391.4 31106.5 23270.8 31065.1 23146.6Z" fill="#B2B6B7"/>
<path d="M23999.3 12547.9C24079.7 12547.9 24160.1 12547.9 24243 12547.9C24243 12708.7 24243 12869.5 24243 13035.2C24323.4 13035.2 24403.8 13035.2 24486.6 13035.2C24615.8 13875.8 24615.8 13875.8 24608.4 14253.4C24528 14333.8 24447.6 14414.2 24364.8 14497.1C23992 14520.2 23992 14520.2 23633.9 14497.1C23593.7 14456.9 23553.5 14416.7 23512 14375.2C23496.2 14134 23490.1 13892.8 23488.9 13651.6C23487.7 13520 23485.2 13388.5 23484 13253.2C23493.8 13141.2 23502.3 13029.1 23512 12913.3C23592.4 12832.9 23672.8 12752.5 23755.7 12669.7C23836.1 12709.9 23916.5 12750.1 23999.3 12791.5C23999.3 12711.1 23999.3 12630.7 23999.3 12547.9Z" fill="#B6BABB"/>
<path d="M28263.2 8162.21C28263.2 8282.81 28263.2 8403.42 28263.2 8527.68C28303.4 8688.49 28343.6 8849.3 28385 9014.98C28385 9095.38 28385 9175.78 28385 9258.62C27958.6 9349.99 27958.6 9349.99 27532.2 9380.45C27532.2 9300.04 27532.2 9219.64 27532.2 9136.8C27397 9170.91 27397 9170.91 27258.1 9205.02C27147.3 9223.3 27037.6 9240.35 26923.1 9258.62C26762.3 9138.02 26601.5 9017.41 26435.8 8893.15C26516.2 8893.15 26596.6 8893.15 26679.5 8893.15C26719.7 8732.34 26759.9 8571.54 26801.3 8405.86C27284.9 8180.48 27732 8098.86 28263.2 8162.21Z" fill="#B6BABB"/>
<path d="M27775.9 10720.5C27896.5 10800.9 28017.1 10881.3 28141.3 10964.2C28141.3 11044.6 28141.3 11125 28141.3 11207.8C28060.9 11207.8 27980.5 11207.8 27897.7 11207.8C27897.7 11288.2 27897.7 11368.6 27897.7 11451.5C27777.1 11572.1 27656.5 11692.7 27532.2 11816.9C27471.3 12003.3 27411.6 12188.5 27349.5 12381C27288.6 12556.4 27228.9 12731.8 27166.8 12913.3C27046.1 12953.5 26925.5 12993.7 26801.3 13035.2C26720.9 12914.6 26640.5 12794 26557.6 12669.7C26595.4 12395.6 26595.4 12395.6 26679.5 12060.6C26696.5 11912 26714.8 11764.5 26733.1 11611C26755 11478.3 26778.1 11345.5 26801.3 11207.8C26881.7 11127.4 26962.1 11047 27044.9 10964.2C27288.6 10964.2 27532.2 10964.2 27775.9 10964.2C27775.9 10883.8 27775.9 10803.4 27775.9 10720.5Z" fill="#B8BBBC"/>
<path d="M28141.3 11451.5C28445.9 11390.5 28445.9 11390.5 28872.3 11451.5C29237.8 11696.3 29538.7 11992.4 29846.9 12304.2C29928.5 12381 30008.9 12458.9 30093 12538.1C30311 12761.1 30311 12761.1 30577.8 13157C30326.9 13386 30326.9 13386 29968.7 13522.5C29928.5 13562.7 29888.3 13602.9 29846.9 13644.3C29645.9 13644.3 29444.9 13644.3 29237.8 13644.3C29184.2 13302 29184.2 13302 29237.8 12913.3C29318.2 12792.7 29398.6 12672.1 29481.4 12547.9C29252.4 12139.8 29252.4 12139.8 28750.5 11938.8C28750.5 11818.1 28750.5 11697.5 28750.5 11573.3C28549.5 11573.3 28348.4 11573.3 28141.3 11573.3C28141.3 11533.1 28141.3 11492.9 28141.3 11451.5Z" fill="#0A0E0F"/>
<path d="M34232.5 15837.1C34473.8 15957.7 34473.8 15957.7 34719.8 16080.8C34760 16000.4 34800.2 15920 34841.7 15837.1C34922.1 15997.9 35002.5 16158.7 35085.3 16324.4C35165.7 16284.2 35246.1 16244 35329 16202.6C35329 16363.4 35329 16524.2 35329 16689.9C35489.8 16730.1 35650.6 16770.3 35816.3 16811.7C35945.4 17383.1 35945.4 17383.1 35938.1 17908.1C35671.3 17870.4 35671.3 17870.4 35329 17664.5C35168.2 17584.1 35007.3 17503.7 34841.7 17420.8C34841.7 17219.8 34841.7 17018.8 34841.7 16811.7C34761.3 16771.5 34680.9 16731.3 34598 16689.9C34400.7 16392.6 34400.7 16392.6 34232.5 16080.8C34232.5 16000.4 34232.5 15920 34232.5 15837.1Z" fill="#B1B4B6"/>
<path d="M41907.5 10355C42724.9 10712 43379.1 11150.6 43978.5 11816.9C44266 12240.9 44547.4 12668.5 44709.4 13157C44506 13157 44303.7 13157 44100.3 13157C44060.1 12996.2 44019.9 12835.4 43978.5 12669.7C44018.7 12549.1 44058.9 12428.5 44100.3 12304.2C43758 12139.8 43758 12139.8 43369.3 12060.6C43248.7 12120.3 43248.7 12120.3 43125.7 12182.4C43045.3 12102 42964.9 12021.6 42882 11938.8C43002.7 11818.1 43123.3 11697.5 43247.5 11573.3C42928.3 11400.3 42603.1 11238.3 42272.9 11086C42272.9 11005.6 42272.9 10925.2 42272.9 10842.3C42192.5 10842.3 42112.1 10842.3 42029.3 10842.3C41989.1 10681.5 41948.9 10520.7 41907.5 10355Z" fill="#A3A8A9"/>
<path d="M27288.6 12304.2C27328.8 12304.2 27369 12304.2 27410.4 12304.2C27409.2 12420 27408 12535.7 27405.5 12655.1C27543.2 13198.4 27669.9 13353.1 28050 13746.6C28264.4 13954.9 28480 14162 28696.9 14367.9C28806.5 14473.9 28917.4 14581.1 29029.4 14690.8C29301.1 14952.7 29572.8 15213.4 29846.9 15471.6C29686.1 15511.8 29525.3 15552.1 29359.6 15593.5C29239 15513.1 29118.4 15432.7 28994.1 15349.8C28994.1 15269.4 28994.1 15189 28994.1 15106.2C28913.7 15106.2 28833.3 15106.2 28750.5 15106.2C28712.7 14983.1 28674.9 14860.1 28635.9 14733.4C28593.3 14615.2 28550.7 14497.1 28506.8 14375.2C28386.2 14415.4 28265.6 14455.6 28141.3 14497.1C28101.1 14376.4 28060.9 14255.8 28019.5 14131.6C27939.1 14131.6 27858.7 14131.6 27775.9 14131.6C27775.9 14011 27775.9 13890.4 27775.9 13766.1C27655.3 13766.1 27534.7 13766.1 27410.4 13766.1C27370.2 13605.3 27330 13444.5 27288.6 13278.8C27208.2 13238.6 27127.8 13198.4 27044.9 13157C27143.6 12723.3 27143.6 12723.3 27288.6 12304.2Z" fill="#A6AAAC"/>
<path d="M28385 9380.45C28304.6 9380.45 28224.2 9380.45 28141.3 9380.45C28376.5 9650.9 28376.5 9650.9 28750.5 9745.92C28629.9 9866.53 28509.3 9987.13 28385 10111.4C28505.6 10191.8 28626.2 10272.2 28750.5 10355C28467.8 10407.4 28467.8 10407.4 28179.1 10462.2C27736.9 10550 27333.7 10651.1 26923.1 10842.3C26963.3 10721.7 27003.5 10601.1 27044.9 10476.9C27205.7 10436.7 27366.5 10396.5 27532.2 10355C27532.2 10274.6 27532.2 10194.2 27532.2 10111.4C27371.4 10071.2 27210.6 10031 27044.9 9989.57C27085.1 9828.76 27125.3 9667.95 27166.8 9502.27C27658.9 9272.02 27847.7 9246.44 28385 9380.45Z" fill="#0E1214"/>
<path d="M22050.1 21075.6C22284 21158.4 22284 21158.4 22522.8 21243.7C23129.5 21447.1 23735 21568.9 24364.8 21684.7C24244.2 21805.3 24123.6 21925.9 23999.3 22050.1C23918.9 22050.1 23838.5 22050.1 23755.7 22050.1C23755.7 22130.5 23755.7 22211 23755.7 22293.8C23916.5 22293.8 24077.3 22293.8 24243 22293.8C24243 22454.6 24243 22615.4 24243 22781.1C23721.6 22714.1 23352.4 22440 22940.7 22134.2C22549.6 21818.7 22262.1 21540.9 22050.1 21075.6Z" fill="#0F1314"/>
<path d="M38861.9 19370C38902.1 19490.6 38942.3 19611.2 38983.7 19735.5C39104.3 19695.3 39224.9 19655.1 39349.2 19613.7C39510 19573.5 39670.8 19533.3 39836.4 19491.8C39836.4 19572.2 39836.4 19652.6 39836.4 19735.5C40120.3 19751.3 40120.3 19751.3 40452.9 19728.2C40751.3 19731.8 40751.3 19731.8 41054.7 19735.5C41014.5 19856.1 40974.3 19976.7 40932.9 20101C40567.4 20344.6 40567.4 20344.6 40260.4 20372.6C40145.9 20371.4 40030.1 20369 39913.2 20367.8C39798.7 20366.5 39684.2 20365.3 39567.2 20365.3C39239.5 20345.8 38937.4 20295.9 38618.2 20222.8C38698.6 20182.6 38779 20142.4 38861.9 20101C38882.6 19730.6 38882.6 19730.6 38861.9 19370Z" fill="#A5A9AA"/>
<path d="M26679.5 8527.68C26679.5 8688.49 26679.5 8849.3 26679.5 9014.98C26963.3 9060.05 27247.2 9101.47 27532.2 9136.8C27532.2 9257.41 27532.2 9378.01 27532.2 9502.27C27213 9683.79 27213 9683.79 26801.3 9853.12C26666.1 9910.38 26529.6 9967.64 26389.5 10026.1C26284.7 10054.1 26178.8 10082.2 26070.3 10111.4C26070.3 9990.79 26070.3 9870.18 26070.3 9745.92C25989.9 9705.72 25909.5 9665.52 25826.7 9624.1C25947.3 9583.89 26067.9 9543.69 26192.2 9502.27C26152 9421.87 26111.8 9341.46 26070.3 9258.62C25909.5 9178.22 25748.7 9097.82 25583 9014.98C26405.4 8527.68 26405.4 8527.68 26679.5 8527.68Z" fill="#AFB3B3"/>
<path d="M24121.2 22781.1C24638.9 22849.3 24638.9 22849.3 25095.7 23024.7C24913 23345.1 24913 23345.1 24608.4 23633.9C24809.5 23633.9 25010.5 23633.9 25217.6 23633.9C25217.6 23714.3 25217.6 23794.7 25217.6 23877.5C25501.4 23918.9 25786.5 23959.1 26070.3 23999.3C26110.5 24079.7 26150.7 24160.1 26192.2 24243C25602.5 24387.9 25133.5 24372.1 24554.8 24212.5C24372.1 24141.9 24188.2 24072.4 23999.3 23999.3C23959.1 23878.7 23918.9 23758.1 23877.5 23633.9C24038.3 23633.9 24199.1 23633.9 24364.8 23633.9C24405 23513.3 24445.2 23392.6 24486.6 23268.4C24366 23188 24245.4 23107.6 24121.2 23024.7C24121.2 22944.3 24121.2 22863.9 24121.2 22781.1Z" fill="#A8ACAD"/>
<path d="M43369.3 11938.8C43734.8 12046 43734.8 12046 44100.3 12304.2C44100.3 12505.2 44100.3 12706.2 44100.3 12913.3C44220.9 12913.3 44341.5 12913.3 44465.8 12913.3C44465.8 12993.7 44465.8 13074.2 44465.8 13157C44546.2 13197.2 44626.6 13237.4 44709.4 13278.8C44709.4 13399.4 44709.4 13520 44709.4 13644.3C43799.4 13644.3 43799.4 13644.3 43491.2 13522.5C43254.8 13096.1 43254.8 13096.1 43125.7 12669.7C43206.1 12629.5 43286.5 12589.3 43369.3 12547.9C43369.3 12346.9 43369.3 12145.9 43369.3 11938.8Z" fill="#AFB4B4"/>
<path d="M29115.9 22659.3C29196.3 22779.9 29276.7 22900.5 29359.6 23024.7C29319.4 23105.1 29279.2 23185.5 29237.8 23268.4C28656.7 23452.3 28036.6 23408.5 27433.5 23406C27325.1 23406 27217.9 23406 27107.1 23407.3C26842.7 23406 26578.3 23398.7 26314 23390.2C26314 23350 26314 23309.8 26314 23268.4C26477.2 23230.6 26640.5 23192.9 26808.6 23153.9C27046.1 23090.5 27046.1 23090.5 27288.6 23024.7C27248.4 22944.3 27208.2 22863.9 27166.8 22781.1C28135.3 22738.4 28135.3 22738.4 28628.6 22902.9C28789.4 22822.5 28950.3 22742.1 29115.9 22659.3Z" fill="#1D2124"/>
<path d="M29481.4 10598.7C29832.3 10727.8 29832.3 10727.8 30212.4 10964.2C30292.8 11125 30373.2 11285.8 30456 11451.5C30616.8 11531.9 30777.6 11612.3 30943.3 11695.1C30983.5 11775.5 31023.7 11855.9 31065.1 11938.8C30904.3 11898.6 30743.5 11858.3 30577.8 11816.9C30537.6 11897.3 30497.4 11977.7 30456 12060.6C30295.2 12100.8 30134.4 12141 29968.7 12182.4C30089.3 12222.6 30209.9 12262.8 30334.2 12304.2C30253.8 12304.2 30173.4 12304.2 30090.5 12304.2C30050.3 12384.6 30010.1 12465 29968.7 12547.9C29716.5 12270.1 29472.9 11986.3 29237.8 11695.1C29358.4 11682.9 29479 11669.5 29603.2 11657.3C29783.5 11615.9 29783.5 11615.9 29968.7 11573.3C29968.7 11452.7 29968.7 11332.1 29968.7 11207.8C29807.9 11127.4 29647.1 11047 29481.4 10964.2C29481.4 10843.6 29481.4 10722.9 29481.4 10598.7Z" fill="#A8ACAD"/>
<path d="M29359.6 10598.7C29480.2 10759.5 29600.8 10920.3 29725.1 11086C29845.7 11086 29966.3 11086 30090.5 11086C30166.1 11237 30166.1 11237 30242.8 11390.5C30233.1 11491.7 30222.1 11591.6 30212.4 11695.1C29687.3 11741.4 29687.3 11741.4 29115.9 11695.1C29035.5 11654.9 28955.1 11614.7 28872.3 11573.3C28872.3 11492.9 28872.3 11412.5 28872.3 11329.6C28711.5 11249.2 28550.7 11168.8 28385 11086C28344.8 10965.4 28304.6 10844.8 28263.2 10720.5C28780.9 10606 28780.9 10606 29359.6 10598.7Z" fill="#B5B9BA"/>
<path d="M43003.9 18030C43084.3 18070.2 43164.7 18110.4 43247.5 18151.8C43385.2 18449 43385.2 18449 43369.3 18760.9C42910.1 18921.7 42515.4 19004.5 42029.3 19004.5C42029.3 19084.9 42029.3 19165.4 42029.3 19248.2C41948.9 19248.2 41868.5 19248.2 41785.6 19248.2C41785.6 19167.8 41785.6 19087.4 41785.6 19004.5C41665 18964.3 41544.4 18924.1 41420.2 18882.7C41699.1 18673.2 41981.8 18467.3 42272.9 18273.6C42433.7 18313.8 42594.5 18354 42760.2 18395.4C42840.6 18274.8 42921 18154.2 43003.9 18030Z" fill="#A5A9AA"/>
<path d="M23633.9 11451.5C23674.1 11451.5 23714.3 11451.5 23755.7 11451.5C23800.8 11775.5 23842.2 12100.8 23877.5 12426C23917.7 12345.6 23957.9 12265.2 23999.3 12182.4C24308.8 12245.7 24308.8 12245.7 24608.4 12426C24671.8 12742.8 24671.8 12742.8 24654.7 13111.9C24649.9 13233.7 24646.2 13355.6 24641.3 13481C24630.4 13574.8 24619.4 13669.9 24608.4 13766.1C24568.2 13766.1 24528 13766.1 24486.6 13766.1C24489.1 13645.5 24491.5 13524.9 24493.9 13400.6C24491.5 13280 24489.1 13159.4 24486.6 13035.2C24406.2 13035.2 24325.8 13035.2 24243 13035.2C24202.8 13196 24162.6 13356.8 24121.2 13522.5C24146.7 13361.7 24171.1 13200.8 24197.9 13035.2C24212.5 12874.4 24227.1 12713.6 24243 12547.9C24162.6 12547.9 24082.2 12547.9 23999.3 12547.9C23999.3 12628.3 23999.3 12708.7 23999.3 12791.5C23878.7 12831.7 23758.1 12871.9 23633.9 12913.3C23583.9 13277.6 23542.5 13643.1 23512 14009.8C23471.8 14009.8 23431.6 14009.8 23390.2 14009.8C23339 13143.6 23303.7 12267.7 23633.9 11451.5Z" fill="#A5A9AA"/>
<path d="M23877.5 21806.5C24191.8 21745.6 24191.8 21745.6 24585.3 21752.9C24779 21752.9 24779 21752.9 24976.4 21754.1C25339.4 21806.5 25339.4 21806.5 25826.7 22172C25656.1 22226.8 25485.6 22282.8 25308.9 22340.1C24926.4 22463.1 24607.2 22599.6 24243 22781.1C24243 22620.3 24243 22459.5 24243 22293.8C24082.2 22293.8 23921.4 22293.8 23755.7 22293.8C23795.9 22133 23836.1 21972.2 23877.5 21806.5Z" fill="#070B0C"/>
<path d="M38252.7 11329.6C38252.7 11410 38252.7 11490.4 38252.7 11573.3C38132.1 11573.3 38011.5 11573.3 37887.3 11573.3C37887.3 11774.3 37887.3 11975.3 37887.3 12182.4C37597.3 12327.4 37597.3 12327.4 37278.1 12426C37197.7 12506.5 37117.3 12586.9 37034.5 12669.7C36692.2 12601.5 36692.2 12601.5 36425.4 12426C36493.6 12137.3 36493.6 12137.3 36790.8 11816.9C37743.5 11329.6 37743.5 11329.6 38252.7 11329.6Z" fill="#0D1113"/>
<path d="M34354.4 12547.9C34475 12547.9 34595.6 12547.9 34719.8 12547.9C34696.7 12913.3 34696.7 12913.3 34598 13278.8C34517.6 13278.8 34437.2 13278.8 34354.4 13278.8C34394.6 13399.4 34434.8 13520 34476.2 13644.3C34395.8 13724.7 34315.4 13805.1 34232.5 13887.9C34071.7 13847.7 33910.9 13807.5 33745.2 13766.1C33546.7 13407.9 33546.7 13407.9 33501.6 13035.2C33843.9 12882.9 33843.9 12882.9 34232.5 12791.5C34272.7 12711.1 34312.9 12630.7 34354.4 12547.9Z" fill="#B2B6B7"/>
<path d="M36669 18151.8C36980.9 18235.8 36980.9 18235.8 37278.1 18395.4C37278.1 18516 37278.1 18636.6 37278.1 18760.9C37393.9 18735.3 37509.6 18710.9 37629 18685.4C37816.6 18662.2 37816.6 18662.2 38009.1 18639.1C38177.2 18936.3 38177.2 18936.3 38252.7 19248.2C38091.9 19208 37931.1 19167.8 37765.4 19126.4C37765.4 19247 37765.4 19367.6 37765.4 19491.8C37604.6 19451.6 37443.8 19411.4 37278.1 19370C37278.1 19249.4 37278.1 19128.8 37278.1 19004.5C37117.3 18964.3 36956.5 18924.1 36790.8 18882.7C36710.4 18721.9 36630 18561.1 36547.2 18395.4C36587.4 18315 36627.6 18234.6 36669 18151.8Z" fill="#B1B5B6"/>
<path d="M31796.1 13278.8C32215.1 13377.5 32215.1 13377.5 32648.8 13522.5C32689 13643.1 32729.2 13763.7 32770.7 13887.9C32851.1 13887.9 32931.5 13887.9 33014.3 13887.9C33054.5 13807.5 33094.7 13727.1 33136.1 13644.3C33136.1 14035.3 33070.3 14272.9 32892.5 14618.9C32812.1 14538.5 32731.7 14458.1 32648.8 14375.2C32568.4 14455.6 32488 14536 32405.2 14618.9C32324.8 14618.9 32244.4 14618.9 32161.5 14618.9C32117.7 14335 32077.5 14051.2 32039.7 13766.1C31959.3 13605.3 31878.9 13444.5 31796.1 13278.8Z" fill="#B5B9BA"/>
<path d="M24608.4 14131.6C24813.1 14540.9 24978.8 14910 25095.7 15349.8C24975.1 15409.5 24975.1 15409.5 24852.1 15471.6C24852.1 15351 24852.1 15230.4 24852.1 15106.2C24563.4 14925.9 24563.4 14925.9 24243 14862.5C24202.8 14983.1 24162.6 15103.7 24121.2 15228C24000.5 15268.2 23879.9 15308.4 23755.7 15349.8C23603.4 15075.7 23603.4 15075.7 23512 14740.7C23552.2 14620.1 23592.4 14499.5 23633.9 14375.2C23877.5 14370.4 24121.2 14370.4 24364.8 14375.2C24445.2 14294.8 24525.6 14214.4 24608.4 14131.6Z" fill="#A9ADAE"/>
<path d="M41420.2 18882.7C41540.8 18922.9 41661.4 18963.1 41785.6 19004.5C41785.6 19084.9 41785.6 19165.4 41785.6 19248.2C41866 19248.2 41946.4 19248.2 42029.3 19248.2C41989.1 19409 41948.9 19569.8 41907.5 19735.5C41706.4 19735.5 41505.4 19735.5 41298.3 19735.5C41258.1 19815.9 41217.9 19896.3 41176.5 19979.1C40621 19826.9 40621 19826.9 40080.1 19613.7C40080.1 19533.3 40080.1 19452.9 40080.1 19370C40240.9 19329.8 40401.7 19289.6 40567.4 19248.2C40688 19328.6 40808.6 19409 40932.9 19491.8C41053.5 19451.6 41174.1 19411.4 41298.3 19370C41338.5 19209.2 41378.7 19048.4 41420.2 18882.7Z" fill="#B0B3B5"/>
<path d="M27897.7 11573.3C28019.5 11938.8 28019.5 11938.8 28080.4 12311.5C28121.9 12660 28121.9 12660 28263.2 12913.3C28062.2 12913.3 27861.1 12913.3 27654 12913.3C27654 12993.7 27654 13074.2 27654 13157C27573.6 13157 27493.2 13157 27410.4 13157C27364.1 12707.5 27364.1 12707.5 27410.4 12182.4C27654 11816.9 27654 11816.9 27897.7 11573.3Z" fill="#0C0F12"/>
<path d="M26070.3 10476.9C26231.1 10557.3 26392 10637.7 26557.6 10720.5C26557.6 10841.1 26557.6 10961.7 26557.6 11086C26477.2 11166.4 26396.8 11246.8 26314 11329.6C25880.3 11421 25880.3 11421 25461.2 11451.5C25421 11371.1 25380.8 11290.6 25339.4 11207.8C25460 11127.4 25580.6 11047 25704.9 10964.2C25664.7 10843.6 25624.5 10722.9 25583 10598.7C25743.8 10558.5 25904.7 10518.3 26070.3 10476.9Z" fill="#060A0B"/>
<path d="M38983.7 9867.74C39840.1 9831.2 40588.1 9903.07 41420.2 10111.4C41500.6 10191.8 41581 10272.2 41663.8 10355C41205.7 10507.3 40807.4 10582.9 40323.7 10598.7C40286 10501.2 40248.2 10402.6 40209.2 10301.4C40166.6 10199.1 40124 10095.6 40080.1 9989.57C39522.1 9949.37 39522.1 9949.37 38983.7 9989.57C38983.7 9949.37 38983.7 9909.16 38983.7 9867.74Z" fill="#9B9FA0"/>
<path d="M33988.9 14131.6C34422.6 14443.5 34422.6 14443.5 34841.7 14862.5C34925.7 15288.9 34925.7 15288.9 34841.7 15593.5C34359.2 15352.3 34087.6 15151.3 33745.2 14740.7C33785.4 14579.9 33825.6 14419.1 33867.1 14253.4C33907.3 14213.2 33947.5 14173 33988.9 14131.6Z" fill="#101415"/>
<path d="M28872.3 19979.1C29073.3 19979.1 29274.3 19979.1 29481.4 19979.1C29521.6 20139.9 29561.8 20300.8 29603.2 20466.4C29284.1 20740.5 29284.1 20740.5 28872.3 20953.7C28671.3 20953.7 28470.3 20953.7 28263.2 20953.7C28383.8 20873.3 28504.4 20792.9 28628.6 20710.1C28548.2 20629.7 28467.8 20549.3 28385 20466.4C28385 20386 28385 20305.6 28385 20222.8C28505.6 20182.6 28626.2 20142.4 28750.5 20101C28750.5 20181.4 28750.5 20261.8 28750.5 20344.6C28830.9 20344.6 28911.3 20344.6 28994.1 20344.6C28953.9 20224 28913.7 20103.4 28872.3 19979.1Z" fill="#B3B7B8"/>
<path d="M27775.9 21806.5C27816.1 21886.9 27856.3 21967.3 27897.7 22050.1C28018.3 22090.3 28138.9 22130.5 28263.2 22172C28182.8 22332.8 28102.4 22493.6 28019.5 22659.3C28140.1 22699.5 28260.7 22739.7 28385 22781.1C28186.4 22786 27987.8 22790.8 27783.2 22796.9C27672.3 22799.4 27560.2 22801.8 27445.7 22805.5C27353.1 22796.9 27261.8 22789.6 27166.8 22781.1C27126.5 22700.7 27086.3 22620.3 27044.9 22537.4C27125.3 22537.4 27205.7 22537.4 27288.6 22537.4C27288.6 22336.4 27288.6 22135.4 27288.6 21928.3C27449.4 21888.1 27610.2 21847.9 27775.9 21806.5Z" fill="#060A0D"/>
<path d="M29968.7 23024.7C30008.9 23145.3 30049.1 23265.9 30090.5 23390.2C29739.7 23428 29739.7 23428 29359.6 23390.2C29319.4 23309.8 29279.2 23229.4 29237.8 23146.6C29725.1 23024.7 29725.1 23024.7 29968.7 23024.7ZM29725.1 23390.2C29765.3 23470.6 29805.5 23551 29846.9 23633.9C29967.5 23633.9 30088.1 23633.9 30212.4 23633.9C30212.4 23714.3 30212.4 23794.7 30212.4 23877.5C30333 23877.5 30453.6 23877.5 30577.8 23877.5C30577.8 23957.9 30577.8 24038.3 30577.8 24121.2C30284.2 24197.9 30284.2 24197.9 29907.8 24258.8C29783.5 24278.3 29659.3 24299 29531.4 24319.7C29433.9 24334.3 29337.7 24350.2 29237.8 24364.8C29318.2 24244.2 29398.6 24123.6 29481.4 23999.3C29682.4 23999.3 29883.4 23999.3 30090.5 23999.3C30090.5 23918.9 30090.5 23838.5 30090.5 23755.7C29989.4 23778.8 29889.5 23800.8 29786 23823.9C29684.9 23842.2 29585 23859.2 29481.4 23877.5C29481.4 23756.9 29481.4 23636.3 29481.4 23512C29561.8 23471.8 29642.2 23431.6 29725.1 23390.2Z" fill="#A5A9AA"/>
<path d="M24243 16202.6C24463.5 16453.5 24463.5 16453.5 24730.3 16811.7C24865.5 16981 24865.5 16981 25004.4 17154C25075 17241.8 25145.7 17330.7 25217.6 17420.8C25097 17420.8 24976.4 17420.8 24852.1 17420.8C24771.7 17300.2 24691.3 17179.6 24608.4 17055.4C24568.2 17216.2 24528 17377 24486.6 17542.7C24366 17542.7 24245.4 17542.7 24121.2 17542.7C24065.1 16558.3 24065.1 16558.3 24243 16202.6Z" fill="#0E1213"/>
<path d="M30212.4 22902.9C30373.2 22943.1 30534 22983.3 30699.6 23024.7C30699.6 23145.3 30699.6 23265.9 30699.6 23390.2C30780.1 23470.6 30860.5 23551 30943.3 23633.9C30862.9 23633.9 30782.5 23633.9 30699.6 23633.9C30659.4 23754.5 30619.2 23875.1 30577.8 23999.3C30457.2 23959.1 30336.6 23918.9 30212.4 23877.5C30212.4 23797.1 30212.4 23716.7 30212.4 23633.9C30091.7 23633.9 29971.1 23633.9 29846.9 23633.9C29870 23336.6 29870 23336.6 29968.7 23024.7C30049.1 22984.5 30129.5 22944.3 30212.4 22902.9Z" fill="#B2B6B7"/>
<path d="M21562.8 17786.3C21643.3 17947.1 21723.7 18107.9 21806.5 18273.6C21886.9 18273.6 21967.3 18273.6 22050.1 18273.6C22050.1 18557.5 22050.1 18842.5 22050.1 19126.4C22170.7 19126.4 22291.4 19126.4 22415.6 19126.4C22415.6 19206.8 22415.6 19287.2 22415.6 19370C22295 19370 22174.4 19370 22050.1 19370C22009.9 19450.4 21969.7 19530.8 21928.3 19613.7C21745.6 19385.9 21745.6 19385.9 21562.8 19004.5C21531.2 18592.8 21545.8 18200.5 21562.8 17786.3Z" fill="#111415"/>
<path d="M37887.3 11086C37927.5 11206.6 37967.7 11327.2 38009.1 11451.5C37776.4 11580.6 37776.4 11580.6 37445 11695.1C36990.6 11860.8 36587.4 12033.8 36181.7 12304.2C36303.6 11816.9 36303.6 11816.9 36500.9 11558.7C36910.2 11235.8 37364.6 11086 37887.3 11086Z" fill="#A6AAAB"/>
<path d="M22415.6 21684.7C22616.6 21805.3 22817.6 21925.9 23024.7 22050.1C22904.1 22090.3 22783.5 22130.5 22659.3 22172C22659.3 22292.6 22659.3 22413.2 22659.3 22537.4C22739.7 22577.6 22820.1 22617.8 22902.9 22659.3C22742.1 22779.9 22581.3 22900.5 22415.6 23024.7C22295 22984.5 22174.4 22944.3 22050.1 22902.9C22073.3 22476.5 22073.3 22476.5 22172 22050.1C22252.4 22009.9 22332.8 21969.7 22415.6 21928.3C22415.6 21847.9 22415.6 21767.5 22415.6 21684.7Z" fill="#A9ADAE"/>
<path d="M21319.2 15958.9C21684.7 16005.2 21684.7 16005.2 22050.1 16080.8C22090.3 16121 22130.5 16161.2 22172 16202.6C22134.2 16621.7 22134.2 16621.7 22050.1 17055.4C21969.7 17135.8 21889.3 17216.2 21806.5 17299C21791.9 17180.8 21776 17062.7 21761.4 16940.8C21723.7 16756.9 21723.7 16756.9 21684.7 16568.1C21604.3 16527.9 21523.9 16487.7 21441 16446.2C21441 16365.8 21441 16285.4 21441 16202.6C21360.6 16162.4 21280.2 16122.2 21197.4 16080.8C21237.6 16040.6 21277.8 16000.4 21319.2 15958.9Z" fill="#A7ABAC"/>
<path d="M24121.2 14740.7C24241.8 14740.7 24362.4 14740.7 24486.6 14740.7C24607.2 14861.3 24727.8 14981.9 24852.1 15106.2C24852.1 15186.6 24852.1 15267 24852.1 15349.8C24731.5 15430.2 24610.9 15510.6 24486.6 15593.5C24567 15633.7 24647.4 15673.9 24730.3 15715.3C24807 16027.2 24807 16027.2 24852.1 16324.4C24771.7 16284.2 24691.3 16244 24608.4 16202.6C24608.4 16082 24608.4 15961.4 24608.4 15837.1C24487.8 15837.1 24367.2 15837.1 24243 15837.1C24122.4 15716.5 24001.8 15595.9 23877.5 15471.6C23877.5 15391.2 23877.5 15310.8 23877.5 15228C23957.9 15228 24038.3 15228 24121.2 15228C24121.2 15067.2 24121.2 14906.4 24121.2 14740.7Z" fill="#B7BBBC"/>
<path d="M26679.5 11086C26759.9 11126.2 26840.3 11166.4 26923.1 11207.8C26879.2 11763.3 26773.3 12277.4 26557.6 12791.5C26437 12871.9 26316.4 12952.3 26192.2 13035.2C26149.5 12433.4 26188.5 12069.1 26420 11505.1C26506.5 11366.2 26591.7 11228.5 26679.5 11086Z" fill="#A6AAAB"/>
<path d="M38009.1 10111.4C38089.5 10151.6 38169.9 10191.8 38252.7 10233.2C38212.5 10353.8 38172.3 10474.4 38130.9 10598.7C37766.7 10685.2 37401.2 10765.6 37034.5 10842.3C36994.3 10922.7 36954.1 11003.1 36912.7 11086C36751.9 10965.4 36591.1 10844.8 36425.4 10720.5C36683.6 10615.7 36943.1 10511 37201.4 10408.6C37418.2 10320.9 37418.2 10320.9 37638.7 10233.2C37760.6 10193 37883.6 10152.8 38009.1 10111.4Z" fill="#A5A9AA"/>
<path d="M43613 16811.7C43733.6 16892.1 43854.2 16972.5 43978.5 17055.4C43978.5 16975 43978.5 16894.6 43978.5 16811.7C44058.9 16811.7 44139.3 16811.7 44222.1 16811.7C44313.5 17238.1 44313.5 17238.1 44343.9 17664.5C44263.5 17664.5 44183.1 17664.5 44100.3 17664.5C44060.1 17744.9 44019.9 17825.3 43978.5 17908.1C43898.1 17908.1 43817.7 17908.1 43734.8 17908.1C43734.8 17827.7 43734.8 17747.3 43734.8 17664.5C43614.2 17704.7 43493.6 17744.9 43369.3 17786.3C43369.3 17585.3 43369.3 17384.3 43369.3 17177.2C43449.7 17177.2 43530.2 17177.2 43613 17177.2C43613 17056.6 43613 16936 43613 16811.7Z" fill="#AFB3B4"/>
<path d="M25217.6 16568.1C25648.8 16705.7 26028.9 16851.9 26435.8 17055.4C26476 17216.2 26516.2 17377 26557.6 17542.7C26477.2 17623.1 26396.8 17703.5 26314 17786.3C26273.8 17665.7 26233.6 17545.1 26192.2 17420.8C26026.5 17403.8 25860.8 17385.5 25690.2 17367.2C25534.3 17345.3 25378.4 17322.2 25217.6 17299C25257.8 17138.2 25298 16977.4 25339.4 16811.7C25299.2 16731.3 25259 16650.9 25217.6 16568.1Z" fill="#B7BBBC"/>
<path d="M28385 14131.6C28935.6 14584.8 29403.4 15029.4 29846.9 15593.5C29488.7 15555.7 29488.7 15555.7 29115.9 15471.6C29075.7 15351 29035.5 15230.4 28994.1 15106.2C28913.7 15106.2 28833.3 15106.2 28750.5 15106.2C28385 14459.3 28385 14459.3 28385 14131.6Z" fill="#A2A7A7"/>
<path d="M33379.8 13035.2C33623.4 13278.8 33623.4 13278.8 33867.1 13766.1C33987.7 13846.5 34108.3 13926.9 34232.5 14009.8C34111.9 14090.2 33991.3 14170.6 33867.1 14253.4C33867.1 14173 33867.1 14092.6 33867.1 14009.8C33523.5 13853.8 33523.5 13853.8 33136.1 13766.1C33015.5 13806.3 32894.9 13846.5 32770.7 13887.9C33014.3 13400.6 33014.3 13400.6 33379.8 13035.2Z" fill="#A2A6A7"/>
<path d="M26435.8 13278.8C26644.1 13476.2 26846.4 13679.6 27044.9 13887.9C27044.9 13968.3 27044.9 14048.7 27044.9 14131.6C27205.7 14171.8 27366.5 14212 27532.2 14253.4C27572.4 14333.8 27612.6 14414.2 27654 14497.1C27573.6 14497.1 27493.2 14497.1 27410.4 14497.1C27370.2 14577.5 27330 14657.9 27288.6 14740.7C27090 14568.9 27090 14568.9 26854.9 14299.7C26776.9 14212 26698.9 14125.5 26618.5 14035.3C26528.4 13902.6 26528.4 13902.6 26435.8 13766.1C26435.8 13605.3 26435.8 13444.5 26435.8 13278.8Z" fill="#ACB0B1"/>
<path d="M30898.2 11901C30993.2 11953.4 31089.5 12007 31188.2 12060.6C31268.6 12221.4 31347.8 12382.2 31431.8 12547.9C31271 12507.7 31110.2 12467.5 30944.5 12426C30823.9 12426 30703.3 12426 30577.8 12426C30212.4 12304.2 30212.4 12304.2 29968.7 12182.4C30010.1 12102 30050.3 12021.6 30090.5 11938.8C30577.8 11816.9 30577.8 11816.9 30898.2 11901Z" fill="#B5BABA"/>
<path d="M22659.3 19613.7C23026 19644.1 23391.4 19684.3 23755.7 19735.5C23635.1 19775.7 23514.5 19815.9 23390.2 19857.3C23390.2 19977.9 23390.2 20098.5 23390.2 20222.8C23510.8 20222.8 23631.4 20222.8 23755.7 20222.8C23715.5 20303.2 23675.3 20383.6 23633.9 20466.4C23354.9 20383.6 23354.9 20383.6 23017.4 20238.6C22905.3 20191.1 22793.3 20143.6 22677.5 20094.9C22591 20055.9 22504.5 20018.1 22415.6 19979.1C22496 19938.9 22576.4 19898.7 22659.3 19857.3C22659.3 19776.9 22659.3 19696.5 22659.3 19613.7Z" fill="#0F1314"/>
<path d="M43369.3 15837.1C43489.9 15997.9 43610.6 16158.7 43734.8 16324.4C43605.7 16773.9 43605.7 16773.9 43369.3 17177.2C43208.5 17217.4 43047.7 17257.6 42882 17299C42882 17098 42882 16897 42882 16689.9C43042.9 16649.7 43203.7 16609.5 43369.3 16568.1C43409.5 16197.7 43409.5 16197.7 43369.3 15837.1Z" fill="#0D1112"/>
<path d="M23999.3 12182.4C24308.8 12245.7 24308.8 12245.7 24608.4 12426C24671.8 12742.8 24671.8 12742.8 24654.7 13111.9C24649.9 13233.7 24646.2 13355.6 24641.3 13481C24630.4 13574.8 24619.4 13669.9 24608.4 13766.1C24568.2 13766.1 24528 13766.1 24486.6 13766.1C24489.1 13645.5 24491.5 13524.9 24493.9 13400.6C24491.5 13280 24489.1 13159.4 24486.6 13035.2C24406.2 13035.2 24325.8 13035.2 24243 13035.2C24202.8 13196 24162.6 13356.8 24121.2 13522.5C24149.2 13364.1 24176 13205.7 24205.2 13042.5C24217.4 12879.2 24229.6 12716 24243 12547.9C24122.4 12507.7 24001.8 12467.5 23877.5 12426C23917.7 12345.6 23957.9 12265.2 23999.3 12182.4Z" fill="#A0A4A5"/>
<path d="M26923.1 9624.1C26923.1 9744.7 26923.1 9865.31 26923.1 9989.57C26681.9 10110.2 26681.9 10110.2 26435.8 10233.2C26395.6 10353.8 26355.4 10474.4 26314 10598.7C25941.2 10621.8 25941.2 10621.8 25583 10598.7C25988.7 10156.5 26354.2 9836.07 26923.1 9624.1Z" fill="#101415"/>
<path d="M28019.5 9380.45C28140.1 9460.85 28260.7 9541.26 28385 9624.1C28505.6 9664.3 28626.2 9704.5 28750.5 9745.92C28629.9 9866.53 28509.3 9987.13 28385 10111.4C28505.6 10191.8 28626.2 10272.2 28750.5 10355C28255.9 10408.6 28255.9 10408.6 27775.9 10355C27768.6 9935.97 27768.6 9935.97 27897.7 9502.27C27937.9 9462.07 27978.1 9421.87 28019.5 9380.45Z" fill="#0D1114"/>
<path d="M28019.5 8162.21C28099.9 8202.41 28180.3 8242.61 28263.2 8284.03C28263.2 8364.44 28263.2 8444.84 28263.2 8527.68C28303.4 8688.49 28343.6 8849.3 28385 9014.98C28385 9095.38 28385 9175.78 28385 9258.62C28184 9258.62 27983 9258.62 27775.9 9258.62C27775.9 9055.18 27775.9 8852.95 27775.9 8649.5C27615.1 8569.1 27454.3 8488.7 27288.6 8405.86C27529.8 8316.92 27773.4 8236.52 28019.5 8162.21Z" fill="#B8BCBD"/>
<path d="M23024.7 23512C23382.9 23596.1 23382.9 23596.1 23755.7 23755.7C23836.1 23836.1 23916.5 23916.5 23999.3 23999.3C23732.5 24205.2 23732.5 24205.2 23390.2 24364.8C23269.6 24324.6 23149 24284.4 23024.7 24243C22984.5 24122.4 22944.3 24001.8 22902.9 23877.5C22943.1 23756.9 22983.3 23636.3 23024.7 23512Z" fill="#0F1315"/>
<path d="M33745.2 20466.4C33785.5 20466.4 33825.7 20466.4 33867.1 20466.4C33900 21740.7 33900 21740.7 33623.4 22293.8C33411.5 21830.9 33379.8 21611.6 33379.8 21075.6C33420 20995.1 33460.2 20914.7 33501.6 20831.9C33582 20831.9 33662.4 20831.9 33745.2 20831.9C33745.2 20711.3 33745.2 20590.7 33745.2 20466.4Z" fill="#05090C"/>
<path d="M35450.8 11573.3C35611.6 11573.3 35772.4 11573.3 35938.1 11573.3C35897.9 11693.9 35857.7 11814.5 35816.3 11938.8C35695.7 11999.7 35695.7 11999.7 35572.6 12060.6C35532.4 12181.2 35492.2 12301.8 35450.8 12426C35370.4 12426 35290 12426 35207.1 12426C35166.9 12546.7 35126.7 12667.3 35085.3 12791.5C35004.9 12670.9 34924.5 12550.3 34841.7 12426C34881.9 12265.2 34922.1 12104.4 34963.5 11938.8C35124.3 11858.3 35285.1 11777.9 35450.8 11695.1C35450.8 11654.9 35450.8 11614.7 35450.8 11573.3Z" fill="#B3B7B8"/>
<path d="M42272.9 11086C42547 11109.1 42547 11109.1 42882 11207.8C43042.9 11328.4 43203.7 11449 43369.3 11573.3C43329.1 11693.9 43288.9 11814.5 43247.5 11938.8C43086.7 11979 42925.9 12019.2 42760.2 12060.6C42720 11940 42679.8 11819.4 42638.4 11695.1C42517.8 11574.5 42397.2 11453.9 42272.9 11329.6C42272.9 11249.2 42272.9 11168.8 42272.9 11086Z" fill="#AFB4B5"/>
<path d="M39714.6 11207.8C39634.2 11368.6 39553.8 11529.4 39471 11695.1C39270 11695.1 39069 11695.1 38861.9 11695.1C38861.9 11614.7 38861.9 11534.3 38861.9 11451.5C38659.6 11406.4 38456.2 11365 38252.7 11329.6C38252.7 11289.4 38252.7 11249.2 38252.7 11207.8C38764.4 11086 39207.8 11043.3 39714.6 11207.8Z" fill="#0F1314"/>
<path d="M38496.4 10598.7C38657.2 10638.9 38818 10679.1 38983.7 10720.5C39023.9 10760.7 39064.1 10800.9 39105.5 10842.3C39289.5 10863 39472.2 10882.5 39661 10903.2C39929 10933.7 39929 10933.7 40201.9 10964.2C40201.9 11004.4 40201.9 11044.6 40201.9 11086C39860.8 11145.7 39517.3 11194.4 39173.7 11238.3C38983.7 11263.8 38792.4 11289.4 38596.3 11316.2C38442.8 11321.1 38289.3 11324.8 38130.9 11329.6C38090.7 11209 38050.5 11088.4 38009.1 10964.2C38210.1 10964.2 38411.1 10964.2 38618.2 10964.2C38578 10843.6 38537.8 10722.9 38496.4 10598.7Z" fill="#A2A6A7"/>
<path d="M32161.5 9014.98C32251.7 9038.12 32343.1 9060.05 32435.6 9083.2C32798.7 9163.6 32798.7 9163.6 33258 9014.98C33410.2 9312.23 33410.2 9312.23 33501.6 9624.1C33406.6 9574.15 33310.3 9522.98 33212.9 9471.82C33106.9 9441.36 33000.9 9410.9 32892.5 9380.45C32812.1 9541.26 32731.7 9702.06 32648.8 9867.74C32568.4 9867.74 32488 9867.74 32405.2 9867.74C32405.2 9706.94 32405.2 9546.13 32405.2 9380.45C32324.8 9259.84 32244.4 9139.24 32161.5 9014.98Z" fill="#B7BBBC"/>
<path d="M28263.2 8040.38C28628.6 8036.73 28994.1 8034.29 29359.6 8033.07C29464.4 8031.86 29569.1 8030.64 29676.3 8029.42C29935.8 8028.2 30196.5 8034.29 30456 8040.38C30456 8080.59 30456 8120.79 30456 8162.21C30312.2 8157.34 30169.7 8152.46 30022.3 8147.59C29883.4 8152.46 29745.8 8157.34 29603.2 8162.21C29643.4 8282.81 29683.6 8403.42 29725.1 8527.68C29275.5 8513.06 29275.5 8513.06 28750.5 8405.86C28589.7 8285.25 28428.8 8164.64 28263.2 8040.38Z" fill="#A2A6A8"/>
<path d="M25217.6 22781.1C25712.2 22727.5 25712.2 22727.5 26192.2 22781.1C26192.2 22941.9 26192.2 23102.7 26192.2 23268.4C25636.6 23261.1 25636.6 23261.1 25095.7 23146.6C25135.9 23026 25176.1 22905.3 25217.6 22781.1Z" fill="#0F1314"/>
<path d="M28872.3 15471.6C28952.7 15552.1 29033.1 15632.5 29115.9 15715.3C29276.7 15795.7 29437.6 15876.1 29603.2 15958.9C29522.8 16039.3 29442.4 16119.8 29359.6 16202.6C29279.2 16162.4 29198.8 16122.2 29115.9 16080.8C29075.7 16201.4 29035.5 16322 28994.1 16446.2C28793.1 16205 28592.1 15963.8 28385 15715.3C28545.8 15715.3 28706.6 15715.3 28872.3 15715.3C28872.3 15634.9 28872.3 15554.5 28872.3 15471.6Z" fill="#A8ACAD"/>
<path d="M30821.5 8893.15C30982.3 8933.35 31143.1 8973.56 31308.8 9014.98C31188.2 9195.28 31188.2 9195.28 31065.1 9380.45C30664.3 9390.19 30290.3 9380.45 29892 9349.99C29728.7 9340.25 29728.7 9340.25 29561.8 9330.5C29290.1 9312.23 29020.9 9286.64 28750.5 9258.62C28750.5 9218.42 28750.5 9178.22 28750.5 9136.8C29027 9110 29303.5 9091.73 29580.1 9075.89C30212.4 9041.78 30212.4 9041.78 30821.5 8893.15Z" fill="#919598"/>
<path d="M41176.5 18882.7C41256.9 18922.9 41337.3 18963.1 41420.2 19004.5C41380 19125.2 41339.8 19245.8 41298.3 19370C41217.9 19370 41137.5 19370 41054.7 19370C41014.5 19450.4 40974.3 19530.8 40932.9 19613.7C40812.3 19533.3 40691.7 19452.9 40567.4 19370C40201.9 19326.2 39836.4 19284.7 39471 19248.2C39471 19208 39471 19167.8 39471 19126.4C39686.6 19099.6 39902.2 19081.3 40117.9 19065.5C40504 19037.4 40808.6 19005.8 41176.5 18882.7Z" fill="#A0A3A5"/>
<path d="M29603.2 16689.9C29954.1 16781.3 29954.1 16781.3 30334.2 16933.5C30454.8 17054.1 30575.4 17174.7 30699.6 17299C30579 17299 30458.4 17299 30334.2 17299C30294 17419.6 30253.8 17540.2 30212.4 17664.5C29963.8 17385.5 29720.2 17100.4 29481.4 16811.7C29521.6 16771.5 29561.8 16731.3 29603.2 16689.9Z" fill="#A4A8A9"/>
<path d="M33623.4 14131.6C33663.6 14212 33703.8 14292.4 33745.2 14375.2C33705 14536 33664.8 14696.8 33623.4 14862.5C33703.8 14862.5 33784.2 14862.5 33867.1 14862.5C33867.1 14942.9 33867.1 15023.3 33867.1 15106.2C33947.5 15146.4 34027.9 15186.6 34110.7 15228C33990.1 15268.2 33869.5 15308.4 33745.2 15349.8C33485.8 15143.9 33485.8 15143.9 33258 14862.5C33217.8 14701.7 33177.5 14540.9 33136.1 14375.2C33296.9 14294.8 33457.7 14214.4 33623.4 14131.6Z" fill="#B4B8B9"/>
<path d="M26679.5 8527.68C26679.5 8688.49 26679.5 8849.3 26679.5 9014.98C26759.9 9095.38 26840.3 9175.78 26923.1 9258.62C26480.9 9218.42 26038.7 9178.22 25583 9136.8C26329.8 8527.68 26329.8 8527.68 26679.5 8527.68Z" fill="#A9ADAE"/>
<path d="M29603.2 20222.8C29643.4 20383.6 29683.6 20544.4 29725.1 20710.1C29359.6 21075.6 29359.6 21075.6 28978.3 21243.7C28863.8 21268 28748 21293.6 28628.6 21319.2C28588.4 21198.6 28548.2 21078 28506.8 20953.7C28827.2 20783.2 29152.5 20621.1 29481.4 20466.4C29521.6 20386 29561.8 20305.6 29603.2 20222.8Z" fill="#A4A8A9"/>
<path d="M38374.6 19004.5C38495.2 19044.7 38615.8 19084.9 38740 19126.4C38699.8 19166.6 38659.6 19206.8 38618.2 19248.2C38698.6 19288.4 38779 19328.6 38861.9 19370C38899.6 19742.8 38899.6 19742.8 38861.9 20101C38741.2 20101 38620.6 20101 38496.4 20101C38344.1 19826.9 38344.1 19826.9 38252.7 19491.8C38292.9 19331 38333.1 19170.2 38374.6 19004.5Z" fill="#B0B4B6"/>
<path d="M30821.5 16568.1C31255.2 16872.6 31255.2 16872.6 31674.2 17299C31674.2 17419.6 31674.2 17540.2 31674.2 17664.5C31593.8 17664.5 31513.4 17664.5 31430.6 17664.5C31430.6 17584.1 31430.6 17503.7 31430.6 17420.8C31307.5 17387.9 31184.5 17355 31057.8 17322.2C30939.6 17274.6 30821.5 17225.9 30699.6 17177.2C30687.5 17056.6 30674.1 16936 30661.9 16811.7C30714.3 16731.3 30766.7 16650.9 30821.5 16568.1Z" fill="#A6ABAB"/>
<path d="M28994.1 15106.2C29114.7 15226.8 29235.3 15347.4 29359.6 15471.6C29440 15471.6 29520.4 15471.6 29603.2 15471.6C29603.2 15552.1 29603.2 15632.5 29603.2 15715.3C29442.4 15755.5 29281.6 15795.7 29115.9 15837.1C29035.5 15796.9 28955.1 15756.7 28872.3 15715.3C28711.5 15715.3 28550.7 15715.3 28385 15715.3C28425.2 15554.5 28465.4 15393.7 28506.8 15228C28750.5 15106.2 28750.5 15106.2 28994.1 15106.2Z" fill="#B7BBBC"/>
<path d="M43978.5 14618.9C44018.7 14699.3 44058.9 14779.7 44100.3 14862.5C44301.3 14862.5 44502.3 14862.5 44709.4 14862.5C44702.1 15159.8 44702.1 15159.8 44587.6 15471.6C44467 15532.6 44467 15532.6 44343.9 15593.5C44343.9 15513.1 44343.9 15432.7 44343.9 15349.8C44263.5 15349.8 44183.1 15349.8 44100.3 15349.8C44060.1 15430.2 44019.9 15510.6 43978.5 15593.5C43978.5 15271.9 43978.5 14950.2 43978.5 14618.9Z" fill="#AFB3B4"/>
<path d="M28141.3 11451.5C28461.7 11405.2 28461.7 11405.2 28872.3 11451.5C29291.4 11732.9 29291.4 11732.9 29603.2 12060.6C29563 12181.2 29522.8 12301.8 29481.4 12426C29108.6 12228.7 29108.6 12228.7 28750.5 11938.8C28750.5 11818.1 28750.5 11697.5 28750.5 11573.3C28549.5 11573.3 28348.4 11573.3 28141.3 11573.3C28141.3 11533.1 28141.3 11492.9 28141.3 11451.5Z" fill="#161A1B"/>
<path d="M27775.9 10355C27896.5 10355 28017.1 10355 28141.3 10355C28101.1 10475.6 28060.9 10596.3 28019.5 10720.5C27939.1 10720.5 27858.7 10720.5 27775.9 10720.5C27775.9 10800.9 27775.9 10881.3 27775.9 10964.2C27425 11048.2 27425 11048.2 27044.9 11086C26964.5 11045.8 26884.1 11005.6 26801.3 10964.2C27121.7 10754.6 27446.9 10551.2 27775.9 10355Z" fill="#A8ACAD"/>
<path d="M29846.9 19491.8C29967.5 19532 30088.1 19572.2 30212.4 19613.7C30172.2 19774.5 30131.9 19935.3 30090.5 20101C30130.7 20221.6 30170.9 20342.2 30212.4 20466.4C30091.7 20506.6 29971.1 20546.8 29846.9 20588.3C29766.5 20467.7 29686.1 20347 29603.2 20222.8C29725.1 19735.5 29725.1 19735.5 29846.9 19491.8Z" fill="#06090A"/>
<path d="M24121.2 10476.9C24161.4 10557.3 24201.6 10637.7 24243 10720.5C24323.4 10720.5 24403.8 10720.5 24486.6 10720.5C24446.4 10841.1 24406.2 10961.7 24364.8 11086C24284.4 11086 24204 11086 24121.2 11086C24080.9 11166.4 24040.7 11246.8 23999.3 11329.6C24079.7 11369.8 24160.1 11410 24243 11451.5C24137 11763.3 24137 11763.3 23999.3 12060.6C23918.9 11940 23838.5 11819.4 23755.7 11695.1C23797.1 11207.8 23899.4 10920.3 24121.2 10476.9Z" fill="#B0B4B6"/>
<path d="M28019.5 8284.03C27654 8527.68 27654 8527.68 27288.6 8649.5C27248.4 8770.11 27208.2 8890.72 27166.8 9014.98C27046.1 9014.98 26925.5 9014.98 26801.3 9014.98C26801.3 8813.97 26801.3 8612.96 26801.3 8405.86C27287.4 8163.43 27484.7 8150.03 28019.5 8284.03Z" fill="#A9ADAF"/>
<path d="M22659.3 22172C22779.9 22212.2 22900.5 22252.4 23024.7 22293.8C23105.1 22454.6 23185.5 22615.4 23268.4 22781.1C23228.2 22901.7 23188 23022.3 23146.6 23146.6C22773.8 23108.8 22773.8 23108.8 22415.6 23024.7C22536.2 22904.1 22656.8 22783.5 22781.1 22659.3C22740.9 22498.5 22700.7 22337.6 22659.3 22172Z" fill="#B4B8B9"/>
<path d="M36425.4 18273.6C36669 18517.2 36669 18517.2 36912.7 19004.5C36832.3 19084.9 36751.9 19165.4 36669 19248.2C36273.1 18845 36273.1 18845 35938.1 18395.4C36181.7 18273.6 36181.7 18273.6 36425.4 18273.6Z" fill="#A3A7A8"/>
<path d="M43003.9 18030C43084.3 18070.2 43164.7 18110.4 43247.5 18151.8C43354.7 18456.3 43354.7 18456.3 43369.3 18760.9C43208.5 18801.1 43047.7 18841.3 42882 18882.7C42801.6 18842.5 42721.2 18802.3 42638.4 18760.9C42813.8 18220 42813.8 18220 43003.9 18030Z" fill="#AEB2B3"/>
<path d="M39349.2 11086C39775.5 11048.2 39775.5 11048.2 40201.9 11086C40201.9 11206.6 40201.9 11327.2 40201.9 11451.5C40322.5 11491.7 40443.1 11531.9 40567.4 11573.3C40284.8 11623.2 39999.7 11664.6 39714.6 11695.1C39714.6 11614.7 39714.6 11534.3 39714.6 11451.5C39594 11411.3 39473.4 11371.1 39349.2 11329.6C39349.2 11249.2 39349.2 11168.8 39349.2 11086Z" fill="#05090A"/>
<path d="M30821.5 8162.21C31872.8 8391.24 31872.8 8391.24 32283.4 8527.68C32283.4 8648.29 32283.4 8768.89 32283.4 8893.15C32122.6 8852.95 31961.7 8812.75 31796.1 8771.33C31692.5 8759.15 31590.2 8745.74 31484.2 8733.56C31385.5 8705.54 31288.1 8677.52 31186.9 8649.5C31066.3 8488.7 30945.7 8327.89 30821.5 8162.21Z" fill="#A9ADAE"/>
<path d="M32648.8 14253.4C32892.5 14740.7 32892.5 14740.7 33014.3 15228C32893.7 15228 32773.1 15228 32648.8 15228C32351.6 14946.6 32351.6 14946.6 32161.5 14618.9C32322.3 14498.3 32483.2 14377.7 32648.8 14253.4Z" fill="#AAAEAF"/>
<path d="M33867.1 11695.1C34110.7 12060.6 34110.7 12060.6 34232.5 12426C33991.3 12546.7 33991.3 12546.7 33745.2 12669.7C33705 12508.9 33664.8 12348.1 33623.4 12182.4C33663.6 12102 33703.8 12021.6 33745.2 11938.8C33624.6 11979 33504 12019.2 33379.8 12060.6C33379.8 11980.2 33379.8 11899.8 33379.8 11816.9C33540.6 11776.7 33701.4 11736.5 33867.1 11695.1Z" fill="#131718"/>
<path d="M33258 9014.98C34080.3 9457.2 34080.3 9457.2 34354.4 9867.74C34314.2 9988.35 34274 10109 34232.5 10233.2C34152.1 10152.8 34071.7 10072.4 33988.9 9989.57C33988.9 9868.96 33988.9 9748.36 33988.9 9624.1C33828.1 9624.1 33667.3 9624.1 33501.6 9624.1C33349.3 9319.54 33349.3 9319.54 33258 9014.98Z" fill="#9EA2A3"/>
<path d="M28385 9380.45C28221.7 9455.98 28058.5 9531.51 27890.4 9609.48C27652.8 9737.39 27652.8 9737.39 27410.4 9867.74C27450.6 9948.15 27490.8 10028.6 27532.2 10111.4C27371.4 10071.2 27210.6 10031 27044.9 9989.57C27085.1 9828.76 27125.3 9667.95 27166.8 9502.27C27658.9 9272.02 27847.7 9246.44 28385 9380.45Z" fill="#161A1B"/>
<path d="M25583 9136.8C25894.9 9167.26 25894.9 9167.26 26192.2 9258.62C26192.2 9339.03 26192.2 9419.43 26192.2 9502.27C26071.6 9563.18 26071.6 9563.18 25948.5 9624.1C25988.7 9784.9 26028.9 9945.71 26070.3 10111.4C25768.2 9990.79 25768.2 9990.79 25461.2 9867.74C25541.6 9827.54 25622 9787.34 25704.9 9745.92C25704.9 9665.52 25704.9 9585.11 25704.9 9502.27C25624.5 9462.07 25544.1 9421.87 25461.2 9380.45C25501.4 9300.04 25541.6 9219.64 25583 9136.8Z" fill="#B8BCBC"/>
</g>
<defs>
<clipPath id="clip0_82_96">
<rect width="60912" height="34110.7" fill="white"/>
</clipPath>
</defs>
</svg>
